<svg width="28" height="28" viewBox="0 0 28 28" fill="none" xmlns="http://www.w3.org/2000/svg">
<path d="M8.1748 14C8.1748 13.7679 8.26699 13.5454 8.43109 13.3813C8.59518 13.2172 8.81774 13.125 9.0498 13.125H13.125V9.04984C13.125 8.81777 13.2172 8.59521 13.3813 8.43112C13.5453 8.26702 13.7679 8.17484 14 8.17484C14.232 8.17484 14.4546 8.26702 14.6187 8.43112C14.7828 8.59521 14.875 8.81777 14.875 9.04984V13.125H18.9501C19.1822 13.125 19.4048 13.2172 19.5689 13.3813C19.733 13.5454 19.8251 13.7679 19.8251 14C19.8251 14.2321 19.733 14.4546 19.5689 14.6187C19.4048 14.7828 19.1822 14.875 18.9501 14.875H14.875V18.9502C14.875 19.1822 14.7828 19.4048 14.6187 19.5689C14.4546 19.733 14.232 19.8252 14 19.8252C13.7679 19.8252 13.5453 19.733 13.3813 19.5689C13.2172 19.4048 13.125 19.1822 13.125 18.9502V14.875H9.0498C8.81774 14.875 8.59518 14.7828 8.43109 14.6187C8.26699 14.4546 8.1748 14.2321 8.1748 14Z" fill="#343434"/>
<path fill-rule="evenodd" clip-rule="evenodd" d="M8.53652 4.39716C12.1677 3.99461 15.8323 3.99461 19.4635 4.39716C21.595 4.63516 23.3159 6.31399 23.5655 8.45716C23.9972 12.1403 23.9972 15.8608 23.5655 19.544C23.3147 21.6872 21.5939 23.3648 19.4635 23.604C15.8323 24.0066 12.1677 24.0066 8.53652 23.604C6.40502 23.3648 4.68419 21.6872 4.43452 19.544C4.00376 15.8609 4.00376 12.1402 4.43452 8.45716C4.68419 6.31399 6.40619 4.63516 8.53652 4.39716ZM19.2699 6.13549C15.7674 5.74726 12.2327 5.74726 8.73019 6.13549C8.0818 6.20742 7.4766 6.49584 7.01236 6.95416C6.54812 7.41247 6.25194 8.01392 6.17169 8.66132C5.75676 12.2091 5.75676 15.7932 6.17169 19.341C6.25219 19.9882 6.54847 20.5894 7.01269 21.0474C7.47691 21.5055 8.08198 21.7938 8.73019 21.8657C12.2034 22.253 15.7967 22.253 19.2699 21.8657C19.9179 21.7935 20.5226 21.5052 20.9866 21.0471C21.4506 20.589 21.7467 19.988 21.8272 19.341C22.2421 15.7932 22.2421 12.2091 21.8272 8.66132C21.7465 8.01452 21.4503 7.41374 20.9863 6.95592C20.5223 6.49809 19.9177 6.2099 19.2699 6.13782" fill="#343434"/>
</svg>
