<svg width="24" height="24" viewBox="0 0 24 24" fill="none" xmlns="http://www.w3.org/2000/svg">
<path d="M17.75 7.662H17.62C15.73 7.602 14.32 6.142 14.32 4.342C14.32 2.502 15.82 1.012 17.65 1.012C19.48 1.012 20.98 2.512 20.98 4.342C20.9812 5.20666 20.6458 6.03784 20.0447 6.65943C19.4437 7.28102 18.6242 7.64419 17.76 7.672C17.76 7.662 17.76 7.662 17.75 7.662ZM17.65 2.502C16.64 2.502 15.82 3.322 15.82 4.332C15.82 5.322 16.59 6.122 17.58 6.162C17.59 6.152 17.67 6.152 17.76 6.162C18.2335 6.13078 18.6764 5.91705 18.9955 5.56582C19.3146 5.21458 19.4849 4.75324 19.4706 4.27893C19.4564 3.80462 19.2586 3.35435 18.9191 3.02291C18.5795 2.69147 18.1245 2.50473 17.65 2.502ZM17.759 15.03C17.369 15.03 16.979 15 16.589 14.93C16.4917 14.9131 16.3988 14.8772 16.3154 14.8242C16.2321 14.7713 16.16 14.7025 16.1034 14.6217C16.0467 14.5408 16.0065 14.4496 15.9852 14.3532C15.9639 14.2568 15.9617 14.1572 15.979 14.06C15.9959 13.9627 16.0318 13.8698 16.0848 13.7864C16.1377 13.7031 16.2065 13.631 16.2873 13.5744C16.3682 13.5177 16.4594 13.4775 16.5558 13.4562C16.6522 13.4349 16.7518 13.4327 16.849 13.45C18.079 13.66 19.379 13.43 20.249 12.85C20.719 12.54 20.969 12.15 20.969 11.76C20.969 11.37 20.709 10.99 20.249 10.68C19.379 10.1 18.059 9.87 16.819 10.09C16.409 10.17 16.019 9.89 15.949 9.48C15.879 9.07 16.149 8.68 16.559 8.61C18.189 8.32 19.879 8.63 21.079 9.43C21.959 10.02 22.469 10.86 22.469 11.76C22.469 12.65 21.969 13.5 21.079 14.1C20.169 14.7 18.989 15.03 17.759 15.03ZM5.72 7.66H5.7C4.83726 7.63299 4.01886 7.27145 3.41792 6.65184C2.81697 6.03223 2.48062 5.20316 2.48 4.34C2.48 2.5 3.98 1 5.81 1C7.64 1 9.14 2.5 9.14 4.33C9.14 6.14 7.73 7.6 5.93 7.66L5.72 6.91L5.79 7.66H5.72ZM5.82 6.16C5.88 6.16 5.93 6.16 5.99 6.17C6.88 6.13 7.66 5.33 7.66 4.34C7.65947 3.98244 7.55419 3.63286 7.35719 3.33447C7.16018 3.03607 6.88007 2.80192 6.55147 2.66095C6.22287 2.51999 5.86017 2.47837 5.50818 2.54126C5.15618 2.60414 4.83033 2.76876 4.57086 3.01478C4.31139 3.26081 4.12968 3.57746 4.04818 3.92561C3.96667 4.27376 3.98895 4.63816 4.11225 4.97379C4.23555 5.30942 4.45448 5.60158 4.74198 5.81417C5.02949 6.02676 5.37297 6.15046 5.73 6.17C5.74 6.16 5.78 6.16 5.82 6.16ZM5.71 15.03C4.48 15.03 3.3 14.7 2.39 14.1C1.51 13.51 1 12.66 1 11.76C1 10.87 1.51 10.02 2.39 9.43C3.59 8.63 5.28 8.32 6.91 8.61C7.32 8.68 7.59 9.07 7.52 9.48C7.45 9.89 7.06 10.17 6.65 10.09C5.41 9.87 4.1 10.1 3.22 10.68C2.75 10.99 2.5 11.37 2.5 11.76C2.5 12.15 2.76 12.54 3.22 12.85C4.09 13.43 5.39 13.66 6.62 13.45C7.03 13.38 7.42 13.66 7.49 14.06C7.56 14.47 7.29 14.86 6.88 14.93C6.49 15 6.1 15.03 5.71 15.03ZM11.75 15.13H11.62C9.73 15.07 8.32 13.61 8.32 11.81C8.32 9.97 9.82 8.48 11.65 8.48C13.48 8.48 14.98 9.98 14.98 11.81C14.9812 12.6747 14.6458 13.5058 14.0447 14.1274C13.4437 14.749 12.6242 15.1122 11.76 15.14C11.76 15.13 11.76 15.13 11.75 15.13ZM11.65 9.97C10.64 9.97 9.82 10.79 9.82 11.8C9.82 12.79 10.59 13.59 11.58 13.63C11.59 13.62 11.67 13.62 11.76 13.63C12.73 13.58 13.48 12.78 13.49 11.8C13.49 10.8 12.67 9.97 11.65 9.97ZM11.751 22.509C10.551 22.509 9.351 22.199 8.421 21.569C7.541 20.979 7.031 20.139 7.031 19.239C7.031 18.349 7.531 17.489 8.421 16.899C10.291 15.659 13.221 15.659 15.081 16.899C15.961 17.489 16.471 18.329 16.471 19.229C16.471 20.119 15.971 20.979 15.081 21.569C14.151 22.189 12.951 22.509 11.751 22.509ZM9.251 18.159C8.781 18.469 8.531 18.859 8.531 19.249C8.531 19.639 8.791 20.019 9.251 20.329C10.601 21.239 12.891 21.239 14.241 20.329C14.711 20.019 14.961 19.629 14.961 19.239C14.961 18.849 14.701 18.469 14.241 18.159C12.901 17.249 10.611 17.259 9.251 18.159Z" fill="white"/>
</svg>
