<svg width="24" height="24" viewBox="0 0 24 24" fill="none" xmlns="http://www.w3.org/2000/svg">
<g clip-path="url(#clip0_104_233)">
<path fill-rule="evenodd" clip-rule="evenodd" d="M8.16303 5.25H18.75C19.3468 5.25 19.9191 5.48705 20.341 5.90901C20.763 6.33097 21 6.90326 21 7.5V16.5C21 17.0967 20.763 17.669 20.341 18.091C19.9191 18.5129 19.3468 18.75 18.75 18.75H8.16303C7.82567 18.7499 7.49264 18.674 7.1886 18.5278C6.88455 18.3816 6.61727 18.1689 6.40653 17.9055L2.69403 13.266C2.40628 12.9068 2.24949 12.4603 2.24949 12C2.24949 11.5397 2.40628 11.0932 2.69403 10.734L6.40653 6.0945C6.61695 5.83145 6.88375 5.61901 7.18724 5.47284C7.49074 5.32668 7.82317 5.25053 8.16003 5.25H8.16303ZM4.64853 4.689C5.07016 4.16192 5.60497 3.73644 6.21334 3.44407C6.82171 3.1517 7.48805 2.99993 8.16303 3H18.75C19.9435 3 21.0881 3.47411 21.932 4.31802C22.7759 5.16193 23.25 6.30653 23.25 7.5V16.5C23.25 17.6935 22.7759 18.8381 21.932 19.682C21.0881 20.5259 19.9435 21 18.75 21H8.16303C7.48805 21.0001 6.82171 20.8483 6.21334 20.5559C5.60497 20.2636 5.07016 19.8381 4.64853 19.311L0.937529 14.6715C0.330653 13.9133 0 12.9711 0 12C0 11.0289 0.330653 10.0867 0.937529 9.3285L4.64853 4.689ZM10.92 8.205C10.7068 8.00628 10.4247 7.8981 10.1332 7.90324C9.84179 7.90838 9.56372 8.02645 9.3576 8.23257C9.15148 8.43869 9.03341 8.71676 9.02827 9.00822C9.02312 9.29967 9.13131 9.58174 9.33003 9.795L11.535 12L9.33003 14.205C9.2195 14.308 9.13085 14.4322 9.06936 14.5702C9.00787 14.7082 8.97481 14.8572 8.97214 15.0082C8.96948 15.1593 8.99726 15.3093 9.05385 15.4494C9.11043 15.5895 9.19464 15.7167 9.30147 15.8236C9.4083 15.9304 9.53555 16.0146 9.67563 16.0712C9.81571 16.1278 9.96576 16.1556 10.1168 16.1529C10.2679 16.1502 10.4168 16.1172 10.5548 16.0557C10.6928 15.9942 10.817 15.9055 10.92 15.795L13.125 13.59L15.33 15.795C15.433 15.9055 15.5572 15.9942 15.6952 16.0557C15.8332 16.1172 15.9822 16.1502 16.1332 16.1529C16.2843 16.1556 16.4343 16.1278 16.5744 16.0712C16.7145 16.0146 16.8418 15.9304 16.9486 15.8236C17.0554 15.7167 17.1396 15.5895 17.1962 15.4494C17.2528 15.3093 17.2806 15.1593 17.2779 15.0082C17.2753 14.8572 17.2422 14.7082 17.1807 14.5702C17.1192 14.4322 17.0306 14.308 16.92 14.205L14.715 12L16.92 9.795C17.1187 9.58174 17.2269 9.29967 17.2218 9.00822C17.2166 8.71676 17.0986 8.43869 16.8925 8.23257C16.6863 8.02645 16.4083 7.90838 16.1168 7.90324C15.8254 7.8981 15.5433 8.00628 15.33 8.205L13.125 10.41L10.92 8.205Z" fill="#AE0C00"/>
</g>
<defs>
<clipPath id="clip0_104_233">
<rect width="24" height="24" fill="white"/>
</clipPath>
</defs>
</svg>
