<svg width="24" height="24" viewBox="0 0 24 24" fill="none" xmlns="http://www.w3.org/2000/svg">
<path d="M10.9534 11.1267C10.0304 11.1267 9.12813 10.853 8.3607 10.3402C7.59327 9.82741 6.99513 9.09858 6.64192 8.24586C6.28871 7.39314 6.1963 6.45483 6.37636 5.54958C6.55643 4.64434 7.00088 3.81282 7.65353 3.16017C8.30617 2.50753 9.13769 2.06307 10.0429 1.88301C10.9482 1.70294 11.8865 1.79536 12.7392 2.14857C13.5919 2.50177 14.3208 3.09991 14.8336 3.86734C15.3463 4.63477 15.62 5.53702 15.62 6.46C15.62 7.69768 15.1284 8.88467 14.2532 9.75984C13.378 10.635 12.191 11.1267 10.9534 11.1267ZM10.9534 3.18C10.2941 3.18 9.64962 3.3755 9.10146 3.74177C8.5533 4.10804 8.12605 4.62864 7.87376 5.23773C7.62147 5.84681 7.55546 6.51704 7.68408 7.16364C7.81269 7.81024 8.13016 8.40418 8.59634 8.87036C9.06251 9.33653 9.65646 9.654 10.3031 9.78262C10.9497 9.91124 11.6199 9.84523 12.229 9.59294C12.8381 9.34064 13.3587 8.9134 13.7249 8.36524C14.0912 7.81707 14.2867 7.17261 14.2867 6.51334C14.2867 6.0756 14.2005 5.64214 14.033 5.23773C13.8654 4.83331 13.6199 4.46584 13.3104 4.15631C13.0009 3.84679 12.6334 3.60125 12.229 3.43374C11.8246 3.26622 11.3911 3.18 10.9534 3.18ZM14.6667 11.9333C11.059 11.1215 7.28471 11.5125 3.92003 13.0467C3.45729 13.2677 3.06687 13.6157 2.79423 14.05C2.52159 14.4843 2.37794 14.9872 2.38003 15.5V19.4667C2.38003 19.5542 2.39727 19.6409 2.43077 19.7218C2.46428 19.8027 2.51338 19.8762 2.57529 19.9381C2.6372 20 2.71069 20.0491 2.79157 20.0826C2.87246 20.1161 2.95915 20.1333 3.04669 20.1333C3.13424 20.1333 3.22093 20.1161 3.30182 20.0826C3.3827 20.0491 3.45619 20 3.5181 19.9381C3.58 19.8762 3.62911 19.8027 3.66261 19.7218C3.69612 19.6409 3.71336 19.5542 3.71336 19.4667V15.5C3.70756 15.2405 3.77764 14.9849 3.91501 14.7646C4.05239 14.5443 4.25107 14.369 4.48669 14.26C6.51354 13.3241 8.72091 12.844 10.9534 12.8533C12.2042 12.8517 13.4508 12.9995 14.6667 13.2933V11.9333ZM14.76 18.2733H18.8534V19.2067H14.76V18.2733Z" fill="white"/>
<path d="M22.1134 14.3133H18.6667V15.6467H21.4467V21.2267H12V15.6467H16.2V15.9267C16.2 16.1035 16.2703 16.273 16.3953 16.3981C16.5203 16.5231 16.6899 16.5933 16.8667 16.5933C17.0435 16.5933 17.2131 16.5231 17.3381 16.3981C17.4631 16.273 17.5334 16.1035 17.5334 15.9267V13.3333C17.5334 13.1565 17.4631 12.9869 17.3381 12.8619C17.2131 12.7369 17.0435 12.6667 16.8667 12.6667C16.6899 12.6667 16.5203 12.7369 16.3953 12.8619C16.2703 12.9869 16.2 13.1565 16.2 13.3333V14.3133H11.3334C11.1565 14.3133 10.987 14.3836 10.8619 14.5086C10.7369 14.6336 10.6667 14.8032 10.6667 14.98V21.8933C10.6667 22.0701 10.7369 22.2397 10.8619 22.3647C10.987 22.4898 11.1565 22.56 11.3334 22.56H22.1134C22.2902 22.56 22.4597 22.4898 22.5848 22.3647C22.7098 22.2397 22.78 22.0701 22.78 21.8933V14.98C22.78 14.8032 22.7098 14.6336 22.5848 14.5086C22.4597 14.3836 22.2902 14.3133 22.1134 14.3133Z" fill="white"/>
</svg>
