<svg width="16" height="20" viewBox="0 0 16 20" fill="none" xmlns="http://www.w3.org/2000/svg">
<path d="M11 5H5M11 9H5M11 13H7M1 1H15V19L13.968 18.116C13.6055 17.8053 13.1439 17.6346 12.6665 17.6346C12.1891 17.6346 11.7275 17.8053 11.365 18.116L10.333 19L9.302 18.116C8.93946 17.8051 8.47761 17.6342 8 17.6342C7.52239 17.6342 7.06054 17.8051 6.698 18.116L5.667 19L4.635 18.116C4.27253 17.8053 3.81088 17.6346 3.3335 17.6346C2.85611 17.6346 2.39447 17.8053 2.032 18.116L1 19V1Z" stroke="#343434" stroke-width="1.5" stroke-linecap="round" stroke-linejoin="round"/>
</svg>
