<svg width="49" height="55" viewBox="0 0 49 55" fill="none" xmlns="http://www.w3.org/2000/svg">
<g filter="url(#filter0_d_45_147)">
<path d="M24.45 4.57L32.26 9.08L36.22 6.8L24.45 0L4.78998 11.36L8.72998 13.64L24.45 4.57Z" fill="white"/>
<path d="M40.1601 9.08002L24.4501 18.15L16.6401 13.64L12.6901 15.92L24.4501 22.71L44.1201 11.36L40.1601 9.08002Z" fill="white"/>
<path d="M7.95 24.3401L4 22.0601V35.6401L23.66 47.0001V42.4401L7.95 33.3601V24.3401Z" fill="white"/>
<path d="M4 17.4999L19.71 26.5699V35.5899L23.66 37.8799V24.2899L4 12.9399V17.4999Z" fill="white"/>
<path d="M37.0101 22.06V17.5L25.2401 24.29V47L29.1901 44.72V26.57L37.0101 22.06Z" fill="white"/>
<path d="M40.9501 15.2199V33.3599L33.1401 37.8799V42.4399L44.9101 35.6399V12.9399L40.9501 15.2199Z" fill="white"/>
</g>
<defs>
<filter id="filter0_d_45_147" x="0" y="0" width="48.9101" height="55.0001" filterUnits="userSpaceOnUse" color-interpolation-filters="sRGB">
<feFlood flood-opacity="0" result="BackgroundImageFix"/>
<feColorMatrix in="SourceAlpha" type="matrix" values="0 0 0 0 0 0 0 0 0 0 0 0 0 0 0 0 0 0 127 0" result="hardAlpha"/>
<feOffset dy="4"/>
<feGaussianBlur stdDeviation="2"/>
<feComposite in2="hardAlpha" operator="out"/>
<feColorMatrix type="matrix" values="0 0 0 0 0 0 0 0 0 0 0 0 0 0 0 0 0 0 0.25 0"/>
<feBlend mode="normal" in2="BackgroundImageFix" result="effect1_dropShadow_45_147"/>
<feBlend mode="normal" in="SourceGraphic" in2="effect1_dropShadow_45_147" result="shape"/>
</filter>
</defs>
</svg>
