<svg width="23" height="23" viewBox="0 0 23 23" fill="none" xmlns="http://www.w3.org/2000/svg">
<path d="M7.07052 12.0328L6.53193 12.5091C6.5961 12.5815 6.67421 12.6402 6.76159 12.6816C6.84897 12.7231 6.94382 12.7465 7.04046 12.7504C7.1371 12.7544 7.23354 12.7387 7.324 12.7045C7.41447 12.6703 7.49709 12.6182 7.56693 12.5513L7.07052 12.0328ZM9.12231 11.0601C9.25356 10.9268 9.32766 10.7476 9.32887 10.5605C9.33008 10.3734 9.25831 10.1933 9.1288 10.0583C8.9993 9.92328 8.82226 9.84409 8.6353 9.83754C8.44834 9.83099 8.2662 9.89759 8.12756 10.0232L9.12231 11.0601ZM6.28756 10.0654C6.2262 9.99072 6.15043 9.92921 6.06476 9.88451C5.97909 9.83982 5.88529 9.81286 5.78897 9.80524C5.69264 9.79762 5.59577 9.8095 5.50414 9.84017C5.41251 9.87085 5.32801 9.91968 5.25568 9.98376C5.18336 10.0478 5.12469 10.1258 5.0832 10.2131C5.0417 10.3004 5.01823 10.3951 5.01418 10.4916C5.01013 10.5882 5.02559 10.6845 5.05963 10.775C5.09368 10.8654 5.1456 10.948 5.21231 11.0179L6.28756 10.0654ZM14.3088 8.63361C14.3729 8.70296 14.45 8.759 14.5357 8.79856C14.6214 8.83811 14.7141 8.86039 14.8084 8.86412C14.9027 8.86786 14.9969 8.85298 15.0854 8.82034C15.174 8.78769 15.2553 8.73792 15.3246 8.67386C15.394 8.60981 15.45 8.53272 15.4896 8.447C15.5291 8.36128 15.5514 8.26861 15.5552 8.17428C15.5589 8.07995 15.544 7.98581 15.5114 7.89723C15.4787 7.80865 15.429 7.72737 15.3649 7.65803L14.3088 8.63361ZM11.5431 5.98957C8.68148 5.98957 6.35273 8.29245 6.35273 11.1454H7.79023C7.79023 9.09745 9.46443 7.42707 11.5431 7.42707V5.98957ZM6.35273 11.1454V12.0328H7.79023V11.1454H6.35273ZM7.56885 12.5513L9.12327 11.0601L8.12852 10.0232L6.5741 11.5134L7.56885 12.5513ZM7.6091 11.5556L6.28756 10.0654L5.21231 11.0179L6.53193 12.5091L7.6091 11.5556ZM15.3649 7.65803C14.8775 7.13072 14.287 6.71021 13.6288 6.42303C12.9707 6.13586 12.2602 5.98826 11.5421 5.98957V7.42707C12.062 7.4258 12.5765 7.53246 13.0531 7.74031C13.5297 7.94816 13.9579 8.25267 14.3107 8.63457L15.3649 7.65803ZM15.9265 10.9672L16.4631 10.4899C16.3989 10.4176 16.3207 10.359 16.2333 10.3176C16.1459 10.2763 16.0511 10.2529 15.9544 10.2491C15.8578 10.2452 15.7614 10.2609 15.6709 10.2952C15.5805 10.3295 15.4979 10.3817 15.4281 10.4487L15.9265 10.9672ZM13.8766 11.9389C13.7391 12.0711 13.6597 12.2524 13.656 12.4431C13.6522 12.6338 13.7243 12.8182 13.8565 12.9557C13.9886 13.0932 14.17 13.1726 14.3607 13.1763C14.5514 13.1801 14.7358 13.108 14.8733 12.9758L13.8766 11.9389ZM16.7133 12.9356C16.8415 13.0721 17.018 13.1532 17.2051 13.1616C17.3922 13.17 17.5752 13.105 17.7151 12.9804C17.855 12.8559 17.9408 12.6816 17.9542 12.4948C17.9675 12.308 17.9074 12.1233 17.7866 11.9801L16.7133 12.9356ZM8.66998 14.3798C8.53882 14.244 8.35949 14.1653 8.17076 14.1606C7.98203 14.1559 7.79904 14.2257 7.66133 14.3549C7.52362 14.484 7.44226 14.6621 7.43482 14.8508C7.42738 15.0394 7.49445 15.2234 7.62156 15.363L8.66998 14.3798ZM11.4376 17.0104C14.3059 17.0104 16.6452 14.7104 16.6452 11.8546H15.2077C15.2077 13.9006 13.5278 15.5729 11.4376 15.5729V17.0104ZM16.6452 11.8546V10.9672H15.2077V11.8546H16.6452ZM15.4281 10.4487L13.8766 11.9389L14.8733 12.9758L16.4239 11.4856L15.4281 10.4487ZM15.3898 11.4454L16.7123 12.9346L17.7876 11.9801L16.4631 10.4899L15.3898 11.4454ZM7.6206 15.3621C8.10995 15.8834 8.70117 16.2986 9.35761 16.582C10.014 16.8653 10.7217 17.0108 11.4367 17.0094V15.5719C10.3413 15.5719 9.3571 15.1119 8.66902 14.3788L7.6206 15.3621Z" fill="#343434"/>
<path d="M1.91663 11.5C1.91663 6.98241 1.91663 4.72361 3.31963 3.31966C4.72454 1.91666 6.98238 1.91666 11.5 1.91666C16.0175 1.91666 18.2763 1.91666 19.6793 3.31966C21.0833 4.72457 21.0833 6.98241 21.0833 11.5C21.0833 16.0176 21.0833 18.2764 19.6793 19.6794C18.2773 21.0833 16.0175 21.0833 11.5 21.0833C6.98238 21.0833 4.72358 21.0833 3.31963 19.6794C1.91663 18.2773 1.91663 16.0176 1.91663 11.5Z" stroke="#343434" stroke-width="1.5"/>
</svg>
