<svg width="24" height="24" viewBox="0 0 24 24" fill="none" xmlns="http://www.w3.org/2000/svg">
<path d="M15 22.75H9C3.57 22.75 1.25 20.43 1.25 15V9C1.25 3.57 3.57 1.25 9 1.25H15C20.43 1.25 22.75 3.57 22.75 9V15C22.75 20.43 20.43 22.75 15 22.75ZM9 2.75C4.39 2.75 2.75 4.39 2.75 9V15C2.75 19.61 4.39 21.25 9 21.25H15C19.61 21.25 21.25 19.61 21.25 15V9C21.25 4.39 19.61 2.75 15 2.75H9Z" fill="white"/>
<path d="M7.32997 15.238C7.16997 15.238 7.00997 15.188 6.86997 15.078C6.79183 15.0182 6.72623 14.9437 6.6769 14.8586C6.62758 14.7735 6.5955 14.6795 6.5825 14.582C6.5695 14.4845 6.57583 14.3854 6.60113 14.2903C6.62644 14.1953 6.67022 14.1061 6.72997 14.028L9.10997 10.938C9.39997 10.568 9.80997 10.328 10.28 10.268C10.74 10.208 11.21 10.338 11.58 10.628L13.41 12.068C13.48 12.128 13.55 12.128 13.6 12.118C13.64 12.118 13.71 12.098 13.77 12.018L16.08 9.038C16.1397 8.95961 16.2145 8.89394 16.3 8.84485C16.3854 8.79576 16.4798 8.76424 16.5776 8.75213C16.6754 8.74002 16.7747 8.74757 16.8695 8.77433C16.9644 8.8011 17.0529 8.84654 17.13 8.908C17.46 9.158 17.52 9.628 17.26 9.958L14.95 12.938C14.66 13.308 14.25 13.548 13.78 13.598C13.31 13.658 12.85 13.528 12.48 13.238L10.65 11.798C10.6243 11.7755 10.5938 11.7593 10.5609 11.7506C10.5279 11.7419 10.4934 11.741 10.46 11.748C10.42 11.748 10.35 11.768 10.29 11.848L7.90997 14.938C7.77997 15.138 7.55997 15.238 7.32997 15.238Z" fill="white"/>
</svg>
