<svg width="24" height="24" viewBox="0 0 24 24" fill="none" xmlns="http://www.w3.org/2000/svg">
<path d="M17.275 20.25L20.75 16.8L19.7 15.75L17.275 18.125L16.3 17.15L15.25 18.225L17.275 20.25ZM6 9H18V7H6V9ZM18 23C16.6167 23 15.4377 22.5123 14.463 21.537C13.4883 20.5617 13.0007 19.3827 13 18C12.9993 16.6173 13.487 15.4383 14.463 14.463C15.439 13.4877 16.618 13 18 13C19.382 13 20.5613 13.4877 21.538 14.463C22.5147 15.4383 23.002 16.6173 23 18C22.998 19.3827 22.5103 20.562 21.537 21.538C20.5637 22.514 19.3847 23.0013 18 23ZM3 22V5C3 4.45 3.196 3.97933 3.588 3.588C3.98 3.19667 4.45067 3.00067 5 3H19C19.55 3 20.021 3.196 20.413 3.588C20.805 3.98 21.0007 4.45067 21 5V11.675C20.6833 11.525 20.3583 11.4 20.025 11.3C19.6917 11.2 19.35 11.125 19 11.075V5H5V19.05H11.075C11.1583 19.5667 11.2877 20.0583 11.463 20.525C11.6383 20.9917 11.8673 21.4333 12.15 21.85L12 22L10.5 20.5L9 22L7.5 20.5L6 22L4.5 20.5L3 22ZM6 17H11.075C11.125 16.65 11.2 16.3083 11.3 15.975C11.4 15.6417 11.525 15.3167 11.675 15H6V17ZM6 13H13.1C13.7333 12.3833 14.471 11.8957 15.313 11.537C16.155 11.1783 17.0507 10.9993 18 11H6V13Z" fill="white"/>
</svg>
