<svg width="24" height="24" viewBox="0 0 24 24" fill="none" xmlns="http://www.w3.org/2000/svg">
<path d="M6.5 19H17.5C17.965 19 18.197 19 18.39 18.961C18.7777 18.8839 19.1339 18.6935 19.4135 18.4141C19.6931 18.1347 19.8836 17.7787 19.961 17.391C20 17.197 20 16.965 20 16.5C20 16.035 20 15.803 19.961 15.61C19.884 15.2221 19.6938 14.8657 19.4144 14.5859C19.1349 14.3061 18.7788 14.1155 18.391 14.038C18.196 14 17.964 14 17.5 14H6.5C6.035 14 5.803 14 5.61 14.038C5.22184 14.1151 4.86529 14.3056 4.58546 14.5855C4.30563 14.8653 4.1151 15.2218 4.038 15.61C4 15.803 4 16.035 4 16.5C4 16.965 4 17.197 4.038 17.39C4.11528 17.778 4.30588 18.1343 4.5857 18.4139C4.86552 18.6936 5.22198 18.884 5.61 18.961C5.803 19 6.035 19 6.5 19ZM6.5 10H17.5C17.965 10 18.197 10 18.39 9.961C18.7777 9.88386 19.1339 9.69355 19.4135 9.41412C19.6931 9.13468 19.8836 8.77866 19.961 8.391C20 8.196 20 7.964 20 7.5C20 7.036 20 6.803 19.961 6.61C19.884 6.22211 19.6938 5.86575 19.4144 5.58594C19.1349 5.30614 18.7788 5.11546 18.391 5.038C18.196 5 17.964 5 17.5 5H6.5C6.035 5 5.803 5 5.61 5.038C5.22184 5.1151 4.86529 5.30563 4.58546 5.58546C4.30563 5.86529 4.1151 6.22184 4.038 6.61C4 6.803 4 7.035 4 7.5C4 7.965 4 8.197 4.038 8.39C4.11528 8.77797 4.30588 9.13431 4.5857 9.41395C4.86552 9.69359 5.22198 9.88397 5.61 9.961C5.803 10 6.035 10 6.5 10Z" stroke="white" stroke-width="2" stroke-linecap="round" stroke-linejoin="round"/>
</svg>
