<svg width="22" height="23" viewBox="0 0 22 23" fill="none" xmlns="http://www.w3.org/2000/svg">
<path d="M15 5.875H7.00002M15 10.375H7.00002M15 14.875H9.66669M1.66669 1.375H20.3334V21.625L18.9574 20.6305C18.4741 20.281 17.8585 20.0889 17.222 20.0889C16.5855 20.0889 15.97 20.281 15.4867 20.6305L14.1107 21.625L12.736 20.6305C12.2526 20.2807 11.6368 20.0884 11 20.0884C10.3632 20.0884 9.74741 20.2807 9.26402 20.6305L7.88935 21.625L6.51335 20.6305C6.03005 20.281 5.41453 20.0889 4.77802 20.0889C4.14151 20.0889 3.52599 20.281 3.04269 20.6305L1.66669 21.625V1.375Z" stroke="white" stroke-width="1.5" stroke-linecap="round" stroke-linejoin="round"/>
</svg>
