<svg width="24" height="24" viewBox="0 0 24 24" fill="none" xmlns="http://www.w3.org/2000/svg">
<path d="M23.1514 8.22118C24.587 6.7857 23.9324 5.10906 23.1514 4.2937L19.7061 0.848546C18.259 -0.586936 16.5938 0.0676441 15.7784 0.848546L13.826 2.81229H10.8516C8.66951 2.81229 7.40622 3.96067 6.76309 5.28131L1.66399 10.3801V14.9737L0.848591 15.7776C-0.586967 17.2245 0.0676476 18.8897 0.848591 19.705L4.29393 23.1502C4.91409 23.7703 5.58019 24 6.21183 24C7.02723 24 7.77372 23.5981 8.22161 23.1502L11.3224 20.0381H15.4453C17.3977 20.0381 18.3854 18.8208 18.7414 17.6265C20.0391 17.2819 20.7512 16.2943 21.0383 15.3297C22.8184 14.8703 23.4845 13.1822 23.4845 11.9994V8.55421H22.8069L23.1514 8.22118ZM21.1876 11.9994C21.1876 12.5161 20.9694 13.1478 20.0391 13.1478H18.8907V14.2961C18.8907 14.8129 18.6725 15.4445 17.7422 15.4445H16.5938V16.5929C16.5938 17.1097 16.3756 17.7413 15.4453 17.7413H10.3807L6.61379 21.508C6.25777 21.841 6.05105 21.6458 5.92472 21.5195L2.49087 18.0973C2.15782 17.7413 2.35306 17.5346 2.47938 17.4083L3.96088 15.9154V11.3218L6.25777 9.02505V10.851C6.25777 12.2405 7.17653 14.2961 9.70311 14.2961C12.2297 14.2961 13.1484 12.2405 13.1484 10.851H21.1876V11.9994ZM21.5206 6.59047L19.5683 8.55421H10.8516V10.851C10.8516 11.3678 10.6334 11.9994 9.70311 11.9994C8.77287 11.9994 8.55466 11.3678 8.55466 10.851V7.40583C8.55466 6.87757 8.7499 5.10906 10.8516 5.10906H14.7678L17.3862 2.49074C17.7422 2.15771 17.949 2.35293 18.0753 2.47925L21.5091 5.90144C21.8422 6.25744 21.6469 6.46415 21.5206 6.59047Z" fill="white"/>
</svg>
