<svg width="23" height="17" viewBox="0 0 23 17" fill="none" xmlns="http://www.w3.org/2000/svg">
<path d="M10.5 4C9.60999 4 8.73996 4.26392 7.99994 4.75839C7.25991 5.25285 6.68314 5.95566 6.34254 6.77792C6.00195 7.60019 5.91283 8.50499 6.08647 9.37791C6.2601 10.2508 6.68869 11.0526 7.31802 11.682C7.94736 12.3113 8.74918 12.7399 9.6221 12.9135C10.495 13.0872 11.3998 12.9981 12.2221 12.6575C13.0443 12.3169 13.7471 11.7401 14.2416 11.0001C14.7361 10.26 15 9.39002 15 8.5C15 7.30653 14.5259 6.16193 13.682 5.31802C12.8381 4.47411 11.6935 4 10.5 4ZM10.5 11.5C9.90666 11.5 9.32664 11.3241 8.83329 10.9944C8.33994 10.6648 7.95543 10.1962 7.72836 9.64805C7.5013 9.09987 7.44189 8.49667 7.55765 7.91473C7.6734 7.33279 7.95912 6.79824 8.37868 6.37868C8.79824 5.95912 9.33279 5.6734 9.91473 5.55764C10.4967 5.44189 11.0999 5.5013 11.6481 5.72836C12.1962 5.95542 12.6648 6.33994 12.9944 6.83329C13.3241 7.32664 13.5 7.90666 13.5 8.5C13.5 9.29565 13.1839 10.0587 12.6213 10.6213C12.0587 11.1839 11.2957 11.5 10.5 11.5Z" fill="black"/>
<path d="M22.4547 7.995C21.5726 5.71324 20.0412 3.73996 18.0498 2.31906C16.0584 0.898167 13.6943 0.0919297 11.2497 0C8.80507 0.0919297 6.44097 0.898167 4.44958 2.31906C2.45819 3.73996 0.926802 5.71324 0.0446809 7.995C-0.0148936 8.15978 -0.0148936 8.34022 0.0446809 8.505C0.926802 10.7868 2.45819 12.76 4.44958 14.1809C6.44097 15.6018 8.80507 16.4081 11.2497 16.5C13.6943 16.4081 16.0584 15.6018 18.0498 14.1809C20.0412 12.76 21.5726 10.7868 22.4547 8.505C22.5143 8.34022 22.5143 8.15978 22.4547 7.995ZM11.2497 15C7.27468 15 3.07468 12.0525 1.55218 8.25C3.07468 4.4475 7.27468 1.5 11.2497 1.5C15.2247 1.5 19.4247 4.4475 20.9472 8.25C19.4247 12.0525 15.2247 15 11.2497 15Z" fill="black"/>
</svg>
